<svg width="57" height="81" viewBox="0 0 57 81" fill="none" xmlns="http://www.w3.org/2000/svg">
<path d="M55.0258 78.1476H46.2799V27.4706C46.2799 26.6829 45.6413 26.0444 44.8537 26.0444H43.2278V13.0186C43.2278 12.2309 42.5893 11.5924 41.8017 11.5924H39.3543V1.60909C39.3543 0.821454 38.7158 0.182904 37.9281 0.182904H29.9263C29.9263 0.182904 29.2877 0.182903 28.5001 0.182903C27.0739 0.182904 27.0739 2.93962 27.0739 0.182904H19.0721C18.2844 0.182904 17.6459 0.821454 17.6459 1.60909V11.5924H15.1986C14.4109 11.5924 13.7724 12.2309 13.7724 13.0186V26.0444H12.1465C11.3589 26.0444 10.7203 26.6829 10.7203 27.4706V78.1476H1.97442C1.18678 78.1476 0.548233 78.7862 0.548233 79.5738C0.548233 80.3614 1.18678 81 1.97442 81H55.0258C55.8134 81 56.452 80.3614 56.452 79.5738C56.452 78.7862 55.8132 78.1476 55.0258 78.1476ZM20.4983 3.03527H36.502V11.5924H35.1663V6.39403C35.1663 5.6064 34.5277 4.96785 33.7401 4.96785C32.9525 4.96785 32.3139 5.6064 32.3139 6.39403V11.5924H29.9263V6.39403C29.9263 5.6064 29.2877 4.96785 28.5001 4.96785C27.7125 4.96785 27.0739 5.6064 27.0739 6.39403V11.5924H24.6865V6.39403C24.6865 5.6064 24.0479 4.96785 23.2603 4.96785C22.4727 4.96785 21.8341 5.6064 21.8341 6.39403V11.5924H20.4985L20.4983 3.03527ZM16.6247 14.4447H40.3755V26.0444H37.7861V16.6949C37.7861 15.9072 37.1475 15.2687 36.3599 15.2687C35.5723 15.2687 34.9337 15.9072 34.9337 16.6949V26.0444H32.5461V16.6949C32.5461 15.9072 31.9075 15.2687 31.1199 15.2687C30.3323 15.2687 29.6937 15.9072 29.6937 16.6949V26.0444H27.3063V16.6949C27.3063 15.9072 26.6677 15.2687 25.8801 15.2687C25.0925 15.2687 24.4539 15.9072 24.4539 16.6949V26.0444H22.0665V16.6949C22.0665 15.9072 21.4279 15.2687 20.6403 15.2687C19.8527 15.2687 19.2141 15.9072 19.2141 16.6949V26.0444H16.6247V14.4447ZM13.5727 78.1476V28.8967H43.4275V78.1476H13.5727Z" fill="#FFBA08"/>
</svg>
